<svg width="28" height="24" viewBox="0 0 28 24" fill="none" xmlns="http://www.w3.org/2000/svg">
<rect width="28" height="24" rx="5" fill="#39364B"/>
<path d="M6 8.5C5.72386 8.5 5.5 8.72386 5.5 9C5.5 9.27614 5.72386 9.5 6 9.5L6 8.5ZM18.3333 9C18.3333 10.4728 19.5272 11.6667 21 11.6667C22.4728 11.6667 23.6667 10.4728 23.6667 9C23.6667 7.52724 22.4728 6.33333 21 6.33333C19.5272 6.33333 18.3333 7.52724 18.3333 9ZM6 9.5L21 9.5L21 8.5L6 8.5L6 9.5Z" fill="#4B4574"/>
<path d="M22 15.5C22.2761 15.5 22.5 15.7239 22.5 16C22.5 16.2761 22.2761 16.5 22 16.5L22 15.5ZM9.66667 16C9.66667 17.4728 8.47276 18.6667 7 18.6667C5.52724 18.6667 4.33333 17.4728 4.33333 16C4.33333 14.5272 5.52724 13.3333 7 13.3333C8.47276 13.3333 9.66667 14.5272 9.66667 16ZM22 16.5L7 16.5L7 15.5L22 15.5L22 16.5Z" fill="#4B4574"/>
</svg>
