<svg width="37" height="37" viewBox="0 0 37 37" fill="none" xmlns="http://www.w3.org/2000/svg">
<g filter="url(#filter0_f_0_1)">
<path d="M34 18.5C34 27.0604 27.0604 34 18.5 34C9.93959 34 3 27.0604 3 18.5C3 9.93959 9.93959 3 18.5 3C27.0604 3 34 9.93959 34 18.5ZM7.01863 18.5C7.01863 24.841 12.159 29.9814 18.5 29.9814C24.841 29.9814 29.9814 24.841 29.9814 18.5C29.9814 12.159 24.841 7.01863 18.5 7.01863C12.159 7.01863 7.01863 12.159 7.01863 18.5Z" fill="#39364B"/>
</g>
<circle cx="18.5" cy="18.5" r="8.5" fill="#47416D"/>
<defs>
<filter id="filter0_f_0_1" x="0" y="0" width="37" height="37" filterUnits="userSpaceOnUse" color-interpolation-filters="sRGB">
<feFlood flood-opacity="0" result="BackgroundImageFix"/>
<feBlend mode="normal" in="SourceGraphic" in2="BackgroundImageFix" result="shape"/>
<feGaussianBlur stdDeviation="1.5" result="effect1_foregroundBlur_0_1"/>
</filter>
</defs>
</svg>